HIERARCHY
ROOT Hip
{
	OFFSET 0 1.131 0.0052
	CHANNELS 6 Xposition Yposition Zposition Xrotation Yrotation Zrotation
	JOINT Abdomen
	{
		OFFSET 0 -0.047353 -0.05
		CHANNELS 3 Xrotation Zrotation Yrotation
		JOINT Chest
		{
			OFFSET 0 0.132153 0.007439
			CHANNELS 3 Xrotation Zrotation Yrotation
			JOINT Neck
			{
				OFFSET 0 0.3078 0.006161
				CHANNELS 3 Xrotation Zrotation Yrotation
				JOINT Head_comp
				{
					OFFSET 0 0.0884 0.013
					CHANNELS 3 Xrotation Yrotation Zrotation
					End Site
					{
						OFFSET -0 0.156 0.0624
					}
				}
			}
			JOINT Left_Collar
			{
				OFFSET 0.02282 0.250342 0.017193
				CHANNELS 2 Yrotation Zrotation
				JOINT Left_Shoulder
				{
					OFFSET 0.15421 0 0
					CHANNELS 3 Xrotation Yrotation Zrotation
					JOINT Left_Forearm
					{
						OFFSET 0.265212 0 0
						CHANNELS 2 Yrotation Xrotation
						JOINT Left_Hand
						{
							OFFSET 0.27571 0 0
							CHANNELS 2 Zrotation Yrotation
							JOINT L1ProxPhalanx
							{
								OFFSET 0.014142 0.001733 0.014142
								CHANNELS 3 Yrotation Zrotation Xrotation
								JOINT L1MidPhalanx
								{
									OFFSET 0.04 0 0
									CHANNELS 1 Zrotation
									JOINT L1DistPhalanx
									{
										OFFSET 0.035 0 0
										CHANNELS 1 Zrotation
										End Site
										{
											OFFSET 0.029 -0 -0
										}
									}
								}
							}
							JOINT L2ProxPhalanx
							{
								OFFSET 0.0821037 0.001578 0.0219996
								CHANNELS 2 Yrotation Zrotation
								JOINT L2MidPhalanx
								{
									OFFSET 0.04 0 0
									CHANNELS 1 Zrotation
									JOINT L2DistPhalanx
									{
										OFFSET 0.028 0 0
										CHANNELS 1 Zrotation
										End Site
										{
											OFFSET 0.02 -0 -0
										}
									}
								}
							}
							JOINT L3ProxPhalanx
							{
								OFFSET 0.083 0 0
								CHANNELS 2 Yrotation Zrotation
								JOINT L3MidPhalanx
								{
									OFFSET 0.053 0 0
									CHANNELS 1 Zrotation
									JOINT L3DistPhalanx
									{
										OFFSET 0.03 0 0
										CHANNELS 1 Zrotation
										End Site
										{
											OFFSET 0.023 -0 -0
										}
									}
								}
							}
							JOINT L4ProxPhalanx
							{
								OFFSET 0.077274 -0.000761 -0.0207055
								CHANNELS 2 Yrotation Zrotation
								JOINT L4MidPhalanx
								{
									OFFSET 0.05 0 0
									CHANNELS 1 Zrotation
									JOINT L4DistPhalanx
									{
										OFFSET 0.03 0 0
										CHANNELS 1 Zrotation
										End Site
										{
											OFFSET 0.023 -0 -0
										}
									}
								}
							}
							JOINT L5ProxPhalanx
							{
								OFFSET 0.0675499 -0.001644 -0.039
								CHANNELS 2 Yrotation Zrotation
								JOINT L5MidPhalanx
								{
									OFFSET 0.04 0 0
									CHANNELS 1 Zrotation
									JOINT L5DistPhalanx
									{
										OFFSET 0.021 0 0
										CHANNELS 1 Zrotation
										End Site
										{
											OFFSET 0.022 -0 -0
										}
									}
								}
							}
						}
					}
				}
			}
			JOINT Right_Collar
			{
				OFFSET -0.02282 0.250342 0.017193
				CHANNELS 2 Yrotation Zrotation
				JOINT Right_Shoulder
				{
					OFFSET -0.15421 0 0
					CHANNELS 3 Xrotation Yrotation Zrotation
					JOINT Right_Forearm
					{
						OFFSET -0.265212 0 0
						CHANNELS 2 Yrotation Xrotation
						JOINT Right_Hand
						{
							OFFSET -0.27571 3e-006 0
							CHANNELS 2 Zrotation Yrotation
							JOINT R1ProxPhalanx
							{
								OFFSET -0.014142 0.001733 0.014142
								CHANNELS 3 Yrotation Zrotation Xrotation
								JOINT R1MidPhalanx
								{
									OFFSET -0.04 0 0
									CHANNELS 1 Zrotation
									JOINT R1DistPhalanx
									{
										OFFSET -0.035 0 0
										CHANNELS 1 Zrotation
										End Site
										{
											OFFSET -0.029 -0 -0
										}
									}
								}
							}
							JOINT R2ProxPhalanx
							{
								OFFSET -0.0821037 0.001578 0.0219996
								CHANNELS 2 Yrotation Zrotation
								JOINT R2MidPhalanx
								{
									OFFSET -0.04 0 0
									CHANNELS 1 Zrotation
									JOINT R2DistPhalanx
									{
										OFFSET -0.028 0 0
										CHANNELS 1 Zrotation
										End Site
										{
											OFFSET -0.02 -0 -0
										}
									}
								}
							}
							JOINT R3ProxPhalanx
							{
								OFFSET -0.083 0 0
								CHANNELS 2 Yrotation Zrotation
								JOINT R3MidPhalanx
								{
									OFFSET -0.053 0 0
									CHANNELS 1 Zrotation
									JOINT R3DistPhalanx
									{
										OFFSET -0.03 0 0
										CHANNELS 1 Zrotation
										End Site
										{
											OFFSET -0.023 -0 -0
										}
									}
								}
							}
							JOINT R4ProxPhalanx
							{
								OFFSET -0.077274 -0.000761 -0.0207055
								CHANNELS 2 Yrotation Zrotation
								JOINT R4MidPhalanx
								{
									OFFSET -0.05 0 0
									CHANNELS 1 Zrotation
									JOINT R4DistPhalanx
									{
										OFFSET -0.03 0 0
										CHANNELS 1 Zrotation
										End Site
										{
											OFFSET -0.023 -0 -0
										}
									}
								}
							}
							JOINT R5ProxPhalanx
							{
								OFFSET -0.0675499 -0.001644 -0.039
								CHANNELS 2 Yrotation Zrotation
								JOINT R5MidPhalanx
								{
									OFFSET -0.04 0 0
									CHANNELS 1 Zrotation
									JOINT R5DistPhalanx
									{
										OFFSET -0.021 0 0
										CHANNELS 1 Zrotation
										End Site
										{
											OFFSET -0.022 -0 -0
										}
									}
								}
							}
						}
					}
				}
			}
		}
	}
	JOINT Left_Thigh
	{
		OFFSET 0.1118 -0.1612 -0.0442
		CHANNELS 3 Xrotation Zrotation Yrotation
		JOINT Left_Shin
		{
			OFFSET 0 -0.477856 0
			CHANNELS 1 Xrotation
			JOINT Left_Foot
			{
				OFFSET 0 -0.431952 0
				CHANNELS 2 Xrotation Zrotation
				JOINT Left_Toe
				{
					OFFSET 0 -0.0442 0.119
					CHANNELS 1 Xrotation
					End Site
					{
						OFFSET -0 -0 0.07
					}
				}
			}
		}
	}
	JOINT Right_Thigh
	{
		OFFSET -0.1118 -0.1612 -0.0442
		CHANNELS 3 Xrotation Zrotation Yrotation
		JOINT Right_Shin
		{
			OFFSET 0 -0.477856 0
			CHANNELS 1 Xrotation
			JOINT Right_Foot
			{
				OFFSET 0 -0.431952 0
				CHANNELS 2 Xrotation Zrotation
				JOINT Right_Toe
				{
					OFFSET 0 -0.0442 0.119
					CHANNELS 1 Xrotation
					End Site
					{
						OFFSET -0 -0 0.07
					}
				}
			}
		}
	}
}
MOTION
Frames: 13
Frame Time: 0.009975
-0.0998227 -0.0602355 0.0563076 1.74494e-013 9.72135e-008 -5.10884e-006 0 0 0 0 0 0 0 0 0 0 0 0 0 0 -0 0 -0 0 0 0 0 -27.5605 -21.5864 106.421 -7.48048 -7.22872 0.359187 -7.00922 -0.766388 -1.05378 4.72541 -4.46271 -1.39298 -3.41729 8.71841 0.0688695 -13.7112 -8.22532 12.9011 1.57409 -20.5968 -30.2417 0 0 -0 0 -0 0 0 0 0 37.9386 28.008 73.698 26.2405 28.4472 13.118 18.2167 29.0248 19.6359 0 22.4358 32.6146 28.1246 -8.63175 30.7051 32.2053 23.7634 -7.83088 26.7354 35.1526 30.0193 1.07871 -0.754294 -0.0142026 0.0240216 -1.10264 0.754433 0 1.09012 -0.754292 -0.0143527 1.70755e-006 -1.09003 0.754433 0 
-0.0998227 -0.0602355 0.0563076 1.74494e-013 9.72135e-008 -5.10884e-006 0 0 0 0 0 0 0 0 0 0 0 0 0 0 -0 0 -0 0 0 0 0 -27.5605 -21.5864 106.421 -7.48048 -7.22872 0.359187 -7.00922 -0.766388 -1.05378 4.72541 -4.46271 -1.39298 -3.41729 8.71841 0.0688695 -13.7112 -8.22532 12.9011 1.57409 -20.5968 -30.2417 0 0 -0 0 -0 0 0 0 0 37.9386 28.008 73.698 26.2405 28.4472 13.118 18.2167 29.0248 19.6359 0 22.4358 32.6146 28.1246 -8.63175 30.7051 32.2053 23.7634 -7.83088 26.7354 35.1526 30.0193 1.07871 -0.754294 -0.0142026 0.0240216 -1.10264 0.754433 0 1.09012 -0.754292 -0.0143527 1.70755e-006 -1.09003 0.754433 0 
-0.101405 -0.0601476 0.0521791 3.17474e-013 7.40216e-008 -5.08357e-006 0 -0 0 0 -0 0 0 -0 0 -0.710415 0.291088 -9.06852e-006 7.8552 -32.797 9.55916 -14.5048 -32.5892 -103.23 -2.79321 -6.87778 -3.49281 -27.6886 -21.6315 106.298 -7.61808 -7.29258 0.352484 -7.12417 -0.962557 -1.12351 4.70224 -4.60032 -1.58601 -3.49021 8.68326 -0.0918153 -13.8427 -8.2742 12.8672 1.44639 -20.6638 -30.1905 -7.8552 32.797 9.55916 14.5048 32.5892 103.23 -2.79321 6.87778 3.49281 27.6886 21.6315 106.298 7.61808 7.29258 -0.352484 7.12417 0.962557 1.12351 -4.70224 4.60032 1.58601 3.49021 -8.68326 0.0918153 13.8427 8.2742 -12.8672 -1.44639 20.6638 30.1905 0.818701 -0.654635 -0.00937812 0.0239015 -0.842549 0.654708 0 0.830049 -0.654634 -0.0095081 2.40276e-006 -0.829998 0.654708 0 
-0.10135 -0.0601443 0.0519585 3.19086e-013 7.43935e-008 -5.10912e-006 0 -0 0 0 -0 0 0 -0 0 -0.713145 0.291212 -7.41642e-011 7.89358 -32.9616 9.60128 -14.1919 -31.1887 -104.079 -2.8032 -6.91233 -3.51034 -27.5605 -21.5864 106.421 -7.48048 -7.22872 0.359187 -7.00922 -0.766388 -1.05378 4.72541 -4.46271 -1.39298 -3.41729 8.71841 0.0688695 -13.7112 -8.22532 12.9011 1.57409 -20.5968 -30.2417 -7.89358 32.9616 9.60128 14.1919 31.1887 104.079 -2.8032 6.91233 3.51034 27.5605 21.5864 106.421 7.48048 7.22872 -0.359187 7.00922 0.766388 1.05378 -4.72541 4.46271 1.39298 3.41729 -8.71841 -0.0688695 13.7112 8.22532 -12.9011 -1.57409 20.5968 30.2417 0.804748 -0.658113 -0.00924401 0.0240216 -0.828717 0.658183 0 0.816154 -0.658111 -0.00937502 2.41484e-006 -0.816102 0.658183 0 
-0.10135 -0.0601444 0.051963 -3.7062e-013 7.27703e-008 -5.10914e-006 0 -0 0 0 -0 0 0 -0 0 -0.713136 0.2912 -4.37565e-016 7.89358 -32.9616 9.60095 -14.1892 -31.1803 -104.081 -2.8032 -6.91233 -3.51034 -27.5605 -21.5864 106.421 -7.48048 -7.22872 0.359187 -7.00922 -0.766388 -1.05378 4.72541 -4.46271 -1.39298 -3.41729 8.71841 0.0688695 -13.7112 -8.22532 12.9011 1.57409 -20.5968 -30.2417 -7.89358 32.9616 9.60095 14.1892 31.1803 104.081 -2.8032 6.91233 3.51034 27.5605 21.5864 106.421 7.48048 7.22872 -0.359187 7.00922 0.766388 1.05378 -4.72541 4.46271 1.39298 3.41729 -8.71841 -0.0688695 13.7112 8.22532 -12.9011 -1.57409 20.5968 30.2417 0.80503 -0.658116 -0.0092473 0.0240216 -0.828999 0.658186 0 0.816436 -0.658114 -0.0093783 2.41484e-008 -0.816382 0.658186 0 
-0.10135 -0.0601444 0.0519631 5.59346e-013 7.2808e-008 -5.10914e-006 0 -0 0 0 -0 0 0 -0 0 -0.713136 0.2912 3.88256e-019 7.89358 -32.9616 9.60095 -14.1892 -31.1803 -104.081 -2.8032 -6.91233 -3.51034 -27.5605 -21.5864 106.421 -7.48048 -7.22872 0.359187 -7.00922 -0.766388 -1.05378 4.72541 -4.46271 -1.39298 -3.41729 8.71841 0.0688695 -13.7112 -8.22532 12.9011 1.57409 -20.5968 -30.2417 -7.89358 32.9616 9.60095 14.1892 31.1803 104.081 -2.8032 6.91233 3.51034 27.5605 21.5864 106.421 7.48048 7.22872 -0.359187 7.00922 0.766388 1.05378 -4.72541 4.46271 1.39298 3.41729 -8.71841 -0.0688695 13.7112 8.22532 -12.9011 -1.57409 20.5968 30.2417 0.805038 -0.658116 -0.00924738 0.0240216 -0.829007 0.658186 0 0.81644 -0.658114 -0.00937835 2.79625e-006 -0.816391 0.658186 0 
-0.10135 -0.0601444 0.0519631 4.39628e-013 7.28083e-008 -5.10914e-006 0 -0 0 0 -0 0 0 -0 0 -0.713136 0.2912 -3.88256e-019 7.89358 -32.9616 9.60095 -14.1892 -31.1803 -104.081 -2.8032 -6.91233 -3.51034 -27.5605 -21.5864 106.421 -7.48048 -7.22872 0.359187 -7.00922 -0.766388 -1.05378 4.72541 -4.46271 -1.39298 -3.41729 8.71841 0.0688695 -13.7112 -8.22532 12.9011 1.57409 -20.5968 -30.2417 -7.89358 32.9616 9.60095 14.1892 31.1803 104.081 -2.8032 6.91233 3.51034 27.5605 21.5864 106.421 7.48048 7.22872 -0.359187 7.00922 0.766388 1.05378 -4.72541 4.46271 1.39298 3.41729 -8.71841 -0.0688695 13.7112 8.22532 -12.9011 -1.57409 20.5968 30.2417 0.805038 -0.658116 -0.00924738 0.0240216 -0.829007 0.658186 0 0.816442 -0.658114 -0.00937837 1.72441e-006 -0.816391 0.658186 0 
-0.10135 -0.0601444 0.0519631 3.215e-013 7.28083e-008 -5.10914e-006 0 -0 0 0 -0 0 0 -0 0 -0.713136 0.2912 -3.88256e-019 7.89358 -32.9616 9.60095 -14.1892 -31.1803 -104.081 -2.8032 -6.91233 -3.51034 -27.5605 -21.5864 106.421 -7.48048 -7.22872 0.359187 -7.00922 -0.766388 -1.05378 4.72541 -4.46271 -1.39298 -3.41729 8.71841 0.0688695 -13.7112 -8.22532 12.9011 1.57409 -20.5968 -30.2417 -7.89358 32.9616 9.60095 14.1892 31.1803 104.081 -2.8032 6.91233 3.51034 27.5605 21.5864 106.421 7.48048 7.22872 -0.359187 7.00922 0.766388 1.05378 -4.72541 4.46271 1.39298 3.41729 -8.71841 -0.0688695 13.7112 8.22532 -12.9011 -1.57409 20.5968 30.2417 0.805038 -0.658116 -0.00924739 0.0240216 -0.829007 0.658186 0 0.816444 -0.658114 -0.00937839 2.98821e-008 -0.81639 0.658186 0 
-0.10135 -0.0601444 0.0519631 7.26922e-013 7.28083e-008 -5.10914e-006 0 -0 0 0 -0 0 0 -0 0 -0.713136 0.2912 -3.88256e-019 7.89358 -32.9616 9.60095 -14.1892 -31.1803 -104.081 -2.8032 -6.91233 -3.51034 -27.5605 -21.5864 106.421 -7.48048 -7.22872 0.359187 -7.00922 -0.766388 -1.05378 4.72541 -4.46271 -1.39298 -3.41729 8.71841 0.0688695 -13.7112 -8.22532 12.9011 1.57409 -20.5968 -30.2417 -7.89358 32.9616 9.60095 14.1892 31.1803 104.081 -2.8032 6.91233 3.51034 27.5605 21.5864 106.421 7.48048 7.22872 -0.359187 7.00922 0.766388 1.05378 -4.72541 4.46271 1.39298 3.41729 -8.71841 -0.0688695 13.7112 8.22532 -12.9011 -1.57409 20.5968 30.2417 0.805038 -0.658116 -0.00924738 0.0240216 -0.829007 0.658186 0 0.816444 -0.658114 -0.00937839 2.36654e-006 -0.816392 0.658186 0 
-0.10135 -0.0601444 0.0519631 -1.73921e-013 7.28083e-008 -5.10914e-006 0 -0 0 0 -0 0 0 -0 0 -0.713136 0.2912 -3.88256e-019 7.89358 -32.9616 9.60095 -14.1892 -31.1803 -104.081 -2.8032 -6.91233 -3.51034 -27.5605 -21.5864 106.421 -7.48048 -7.22872 0.359187 -7.00922 -0.766388 -1.05378 4.72541 -4.46271 -1.39298 -3.41729 8.71841 0.0688695 -13.7112 -8.22532 12.9011 1.57409 -20.5968 -30.2417 -7.89358 32.9616 9.60095 14.1892 31.1803 104.081 -2.8032 6.91233 3.51034 27.5605 21.5864 106.421 7.48048 7.22872 -0.359187 7.00922 0.766388 1.05378 -4.72541 4.46271 1.39298 3.41729 -8.71841 -0.0688695 13.7112 8.22532 -12.9011 -1.57409 20.5968 30.2417 0.805038 -0.658116 -0.00924738 0.0240216 -0.829007 0.658186 0 0.816444 -0.658114 -0.00937839 5.43338e-008 -0.81639 0.658186 0 
-0.10135 -0.0601444 0.0519631 1.24058e-013 7.28083e-008 -5.10914e-006 0 -0 0 0 -0 0 0 -0 0 -0.713136 0.2912 -0 7.89358 -32.9616 9.60095 -14.1892 -31.1803 -104.081 -2.8032 -6.91233 -3.51034 -27.5605 -21.5864 106.421 -7.48048 -7.22872 0.359187 -7.00922 -0.766388 -1.05378 4.72541 -4.46271 -1.39298 -3.41729 8.71841 0.0688695 -13.7112 -8.22532 12.9011 1.57409 -20.5968 -30.2417 -7.89358 32.9616 9.60095 14.1892 31.1803 104.081 -2.8032 6.91233 3.51034 27.5605 21.5864 106.421 7.48048 7.22872 -0.359187 7.00922 0.766388 1.05378 -4.72541 4.46271 1.39298 3.41729 -8.71841 -0.0688695 13.7112 8.22532 -12.9011 -1.57409 20.5968 30.2417 0.805038 -0.658116 -0.00924739 0.0240216 -0.829007 0.658186 0 0.816444 -0.658114 -0.00937839 1.66486e-006 -0.816391 0.658186 0 
-0.10135 -0.0601444 0.0519631 -4.30706e-014 7.28083e-008 -5.10914e-006 0 -0 0 0 -0 0 0 -0 0 -0.713136 0.2912 -0 7.89358 -32.9616 9.60095 -14.1892 -31.1803 -104.081 -2.8032 -6.91233 -3.51034 -27.5605 -21.5864 106.421 -7.48048 -7.22872 0.359187 -7.00922 -0.766388 -1.05378 4.72541 -4.46271 -1.39298 -3.41729 8.71841 0.0688695 -13.7112 -8.22532 12.9011 1.57409 -20.5968 -30.2417 -7.89358 32.9616 9.60095 14.1892 31.1803 104.081 -2.8032 6.91233 3.51034 27.5605 21.5864 106.421 7.48048 7.22872 -0.359187 7.00922 0.766388 1.05378 -4.72541 4.46271 1.39298 3.41729 -8.71841 -0.0688695 13.7112 8.22532 -12.9011 -1.57409 20.5968 30.2417 0.805038 -0.658116 -0.00924738 0.0240216 -0.829007 0.658186 0 0.816444 -0.658114 -0.00937839 1.70755e-006 -0.816391 0.658186 0 
-0.10135 -0.0601444 0.0519631 4.32969e-013 7.28083e-008 -5.10914e-006 0 -0 0 0 -0 0 0 -0 0 -0.713136 0.2912 -0 7.89358 -32.9616 9.60095 -14.1892 -31.1803 -104.081 -2.8032 -6.91233 -3.51034 -27.5605 -21.5864 106.421 -7.48048 -7.22872 0.359187 -7.00922 -0.766388 -1.05378 4.72541 -4.46271 -1.39298 -3.41729 8.71841 0.0688695 -13.7112 -8.22532 12.9011 1.57409 -20.5968 -30.2417 -7.89358 32.9616 9.60095 14.1892 31.1803 104.081 -2.8032 6.91233 3.51034 27.5605 21.5864 106.421 7.48048 7.22872 -0.359187 7.00922 0.766388 1.05378 -4.72541 4.46271 1.39298 3.41729 -8.71841 -0.0688695 13.7112 8.22532 -12.9011 -1.57409 20.5968 30.2417 0.805038 -0.658116 -0.00924739 0.0240216 -0.829007 0.658186 0 0.816444 -0.658114 -0.00937839 1.70755e-006 -0.816392 0.658186 0 
